<svg width="65" height="50" viewBox="0 0 65 50" fill="none" xmlns="http://www.w3.org/2000/svg">
<path opacity="0.1" d="M0 50V34.127C0 29.806 0.873656 25.463 2.62097 21.0979C4.36828 16.7328 6.57426 12.6984 9.23891 8.99471C11.9036 5.29101 14.5901 2.29277 17.2984 0L32.2379 7.67196C29.9664 11.5079 28.1972 15.5203 26.9304 19.709C25.7073 23.8977 25.1176 28.7037 25.1613 34.127V50H0ZM32.7621 50V34.127C32.7621 29.806 33.6358 25.463 35.3831 21.0979C37.1304 16.7328 39.3364 12.6984 42.001 8.99471C44.6657 5.29101 47.3521 2.29277 50.0605 0L65 7.67196C62.7285 11.5079 60.9593 15.5203 59.6925 19.709C58.4694 23.8977 57.8797 28.7037 57.9234 34.127V50H32.7621Z" fill="black"/>
</svg>
