<svg width="65" height="50" viewBox="0 0 65 50" fill="none" xmlns="http://www.w3.org/2000/svg">
<path opacity="0.1" d="M32.3684 0V15.873C32.3684 20.194 31.4912 24.515 29.7368 28.836C28.0263 33.1129 25.8333 37.1032 23.1579 40.8069C20.5263 44.4665 17.807 47.5309 15 50L0 42.328C1.84211 39.1534 3.48684 35.4718 4.93421 31.2831C6.38158 27.0944 7.10526 21.9577 7.10526 15.873V0H32.3684ZM65 0V15.873C65 20.194 64.1228 24.515 62.3684 28.836C60.6579 33.1129 58.4649 37.1032 55.7895 40.8069C53.1579 44.4665 50.4386 47.5309 47.6316 50L32.6316 42.328C34.4737 39.1534 36.1184 35.4718 37.5658 31.2831C39.0132 27.0944 39.7368 21.9577 39.7368 15.873V0H65Z" fill="black"/>
</svg>
